<mxfile host="Electron" agent="Mozilla/5.0 (Windows NT 10.0; Win64; x64) AppleWebKit/537.36 (KHTML, like Gecko) draw.io/24.7.17 Chrome/128.0.6613.36 Electron/32.0.1 Safari/537.36" version="24.7.17">
  <diagram name="1 oldal" id="UeoRxixYVzYARN7M6lbf">
    <mxGraphModel dx="1050" dy="621" grid="1" gridSize="10" guides="1" tooltips="1" connect="1" arrows="1" fold="1" page="1" pageScale="1" pageWidth="2339" pageHeight="3300" math="0" shadow="0">
      <root>
        <mxCell id="0" />
        <mxCell id="1" parent="0" />
        <mxCell id="mDEu_xkg_dyJT5L7LfrE-14" value="" style="shape=table;startSize=0;container=1;collapsible=0;childLayout=tableLayout;" parent="1" vertex="1">
          <mxGeometry x="100" y="120" width="733" height="710" as="geometry" />
        </mxCell>
        <mxCell id="mDEu_xkg_dyJT5L7LfrE-15" value="" style="shape=tableRow;horizontal=0;startSize=0;swimlaneHead=0;swimlaneBody=0;strokeColor=inherit;top=0;left=0;bottom=0;right=0;collapsible=0;dropTarget=0;fillColor=none;points=[[0,0.5],[1,0.5]];portConstraint=eastwest;" parent="mDEu_xkg_dyJT5L7LfrE-14" vertex="1">
          <mxGeometry width="733" height="40" as="geometry" />
        </mxCell>
        <mxCell id="mDEu_xkg_dyJT5L7LfrE-16" value="Endpoint" style="shape=partialRectangle;html=1;whiteSpace=wrap;connectable=0;strokeColor=inherit;overflow=hidden;fillColor=none;top=0;left=0;bottom=0;right=0;pointerEvents=1;fontStyle=1;fontSize=16;" parent="mDEu_xkg_dyJT5L7LfrE-15" vertex="1">
          <mxGeometry width="160" height="40" as="geometry">
            <mxRectangle width="160" height="40" as="alternateBounds" />
          </mxGeometry>
        </mxCell>
        <mxCell id="mDEu_xkg_dyJT5L7LfrE-17" value="Method" style="shape=partialRectangle;html=1;whiteSpace=wrap;connectable=0;strokeColor=inherit;overflow=hidden;fillColor=none;top=0;left=0;bottom=0;right=0;pointerEvents=1;fontStyle=1;fontSize=16;" parent="mDEu_xkg_dyJT5L7LfrE-15" vertex="1">
          <mxGeometry x="160" width="132" height="40" as="geometry">
            <mxRectangle width="132" height="40" as="alternateBounds" />
          </mxGeometry>
        </mxCell>
        <mxCell id="mDEu_xkg_dyJT5L7LfrE-18" value="Token + Role" style="shape=partialRectangle;html=1;whiteSpace=wrap;connectable=0;strokeColor=inherit;overflow=hidden;fillColor=none;top=0;left=0;bottom=0;right=0;pointerEvents=1;fontStyle=1;fontSize=16;" parent="mDEu_xkg_dyJT5L7LfrE-15" vertex="1">
          <mxGeometry x="292" width="147" height="40" as="geometry">
            <mxRectangle width="147" height="40" as="alternateBounds" />
          </mxGeometry>
        </mxCell>
        <mxCell id="mDEu_xkg_dyJT5L7LfrE-19" value="Data" style="shape=partialRectangle;html=1;whiteSpace=wrap;connectable=0;strokeColor=inherit;overflow=hidden;fillColor=none;top=0;left=0;bottom=0;right=0;pointerEvents=1;fontStyle=1;fontSize=16;" parent="mDEu_xkg_dyJT5L7LfrE-15" vertex="1">
          <mxGeometry x="439" width="147" height="40" as="geometry">
            <mxRectangle width="147" height="40" as="alternateBounds" />
          </mxGeometry>
        </mxCell>
        <mxCell id="mDEu_xkg_dyJT5L7LfrE-117" value="Response" style="shape=partialRectangle;html=1;whiteSpace=wrap;connectable=0;strokeColor=inherit;overflow=hidden;fillColor=none;top=0;left=0;bottom=0;right=0;pointerEvents=1;fontStyle=1;fontSize=16;" parent="mDEu_xkg_dyJT5L7LfrE-15" vertex="1">
          <mxGeometry x="586" width="147" height="40" as="geometry">
            <mxRectangle width="147" height="40" as="alternateBounds" />
          </mxGeometry>
        </mxCell>
        <mxCell id="mDEu_xkg_dyJT5L7LfrE-21" value="" style="shape=tableRow;horizontal=0;startSize=0;swimlaneHead=0;swimlaneBody=0;strokeColor=inherit;top=0;left=0;bottom=0;right=0;collapsible=0;dropTarget=0;fillColor=none;points=[[0,0.5],[1,0.5]];portConstraint=eastwest;" parent="mDEu_xkg_dyJT5L7LfrE-14" vertex="1">
          <mxGeometry y="40" width="733" height="80" as="geometry" />
        </mxCell>
        <mxCell id="mDEu_xkg_dyJT5L7LfrE-22" value="/all" style="shape=partialRectangle;html=1;whiteSpace=wrap;connectable=0;strokeColor=inherit;overflow=hidden;fillColor=none;top=0;left=0;bottom=0;right=0;pointerEvents=1;fontSize=15;" parent="mDEu_xkg_dyJT5L7LfrE-21" vertex="1">
          <mxGeometry width="160" height="80" as="geometry">
            <mxRectangle width="160" height="80" as="alternateBounds" />
          </mxGeometry>
        </mxCell>
        <mxCell id="mDEu_xkg_dyJT5L7LfrE-23" value="GET" style="shape=partialRectangle;html=1;whiteSpace=wrap;connectable=0;strokeColor=inherit;overflow=hidden;fillColor=none;top=0;left=0;bottom=0;right=0;pointerEvents=1;fontSize=15;" parent="mDEu_xkg_dyJT5L7LfrE-21" vertex="1">
          <mxGeometry x="160" width="132" height="80" as="geometry">
            <mxRectangle width="132" height="80" as="alternateBounds" />
          </mxGeometry>
        </mxCell>
        <mxCell id="mDEu_xkg_dyJT5L7LfrE-24" value="" style="shape=partialRectangle;html=1;whiteSpace=wrap;connectable=0;strokeColor=#005700;overflow=hidden;fillColor=#008a00;top=0;left=0;bottom=0;right=0;pointerEvents=1;fontSize=15;fontColor=#ffffff;" parent="mDEu_xkg_dyJT5L7LfrE-21" vertex="1">
          <mxGeometry x="292" width="147" height="80" as="geometry">
            <mxRectangle width="147" height="80" as="alternateBounds" />
          </mxGeometry>
        </mxCell>
        <mxCell id="mDEu_xkg_dyJT5L7LfrE-25" value="-" style="shape=partialRectangle;html=1;whiteSpace=wrap;connectable=0;strokeColor=inherit;overflow=hidden;fillColor=none;top=0;left=0;bottom=0;right=0;pointerEvents=1;fontSize=15;align=center;" parent="mDEu_xkg_dyJT5L7LfrE-21" vertex="1">
          <mxGeometry x="439" width="147" height="80" as="geometry">
            <mxRectangle width="147" height="80" as="alternateBounds" />
          </mxGeometry>
        </mxCell>
        <mxCell id="mDEu_xkg_dyJT5L7LfrE-118" value="Array&amp;lt;Product object&amp;gt;" style="shape=partialRectangle;html=1;whiteSpace=wrap;connectable=0;strokeColor=inherit;overflow=hidden;fillColor=none;top=0;left=0;bottom=0;right=0;pointerEvents=1;fontSize=15;" parent="mDEu_xkg_dyJT5L7LfrE-21" vertex="1">
          <mxGeometry x="586" width="147" height="80" as="geometry">
            <mxRectangle width="147" height="80" as="alternateBounds" />
          </mxGeometry>
        </mxCell>
        <mxCell id="qTHYCNkbOjXIvpoYTU0R-1" style="shape=tableRow;horizontal=0;startSize=0;swimlaneHead=0;swimlaneBody=0;strokeColor=inherit;top=0;left=0;bottom=0;right=0;collapsible=0;dropTarget=0;fillColor=none;points=[[0,0.5],[1,0.5]];portConstraint=eastwest;" parent="mDEu_xkg_dyJT5L7LfrE-14" vertex="1">
          <mxGeometry y="120" width="733" height="80" as="geometry" />
        </mxCell>
        <mxCell id="qTHYCNkbOjXIvpoYTU0R-2" value="/get/:id" style="shape=partialRectangle;html=1;whiteSpace=wrap;connectable=0;strokeColor=inherit;overflow=hidden;fillColor=none;top=0;left=0;bottom=0;right=0;pointerEvents=1;fontSize=15;" parent="qTHYCNkbOjXIvpoYTU0R-1" vertex="1">
          <mxGeometry width="160" height="80" as="geometry">
            <mxRectangle width="160" height="80" as="alternateBounds" />
          </mxGeometry>
        </mxCell>
        <mxCell id="qTHYCNkbOjXIvpoYTU0R-3" value="GET" style="shape=partialRectangle;html=1;whiteSpace=wrap;connectable=0;strokeColor=inherit;overflow=hidden;fillColor=none;top=0;left=0;bottom=0;right=0;pointerEvents=1;fontSize=15;" parent="qTHYCNkbOjXIvpoYTU0R-1" vertex="1">
          <mxGeometry x="160" width="132" height="80" as="geometry">
            <mxRectangle width="132" height="80" as="alternateBounds" />
          </mxGeometry>
        </mxCell>
        <mxCell id="qTHYCNkbOjXIvpoYTU0R-4" style="shape=partialRectangle;html=1;whiteSpace=wrap;connectable=0;strokeColor=#005700;overflow=hidden;fillColor=#008a00;top=0;left=0;bottom=0;right=0;pointerEvents=1;fontSize=15;fontColor=#ffffff;" parent="qTHYCNkbOjXIvpoYTU0R-1" vertex="1">
          <mxGeometry x="292" width="147" height="80" as="geometry">
            <mxRectangle width="147" height="80" as="alternateBounds" />
          </mxGeometry>
        </mxCell>
        <mxCell id="qTHYCNkbOjXIvpoYTU0R-5" value="URL param: id" style="shape=partialRectangle;html=1;whiteSpace=wrap;connectable=0;strokeColor=inherit;overflow=hidden;fillColor=none;top=0;left=0;bottom=0;right=0;pointerEvents=1;fontSize=15;align=center;" parent="qTHYCNkbOjXIvpoYTU0R-1" vertex="1">
          <mxGeometry x="439" width="147" height="80" as="geometry">
            <mxRectangle width="147" height="80" as="alternateBounds" />
          </mxGeometry>
        </mxCell>
        <mxCell id="qTHYCNkbOjXIvpoYTU0R-7" value="Product object" style="shape=partialRectangle;html=1;whiteSpace=wrap;connectable=0;strokeColor=inherit;overflow=hidden;fillColor=none;top=0;left=0;bottom=0;right=0;pointerEvents=1;fontSize=15;" parent="qTHYCNkbOjXIvpoYTU0R-1" vertex="1">
          <mxGeometry x="586" width="147" height="80" as="geometry">
            <mxRectangle width="147" height="80" as="alternateBounds" />
          </mxGeometry>
        </mxCell>
        <mxCell id="qTHYCNkbOjXIvpoYTU0R-15" style="shape=tableRow;horizontal=0;startSize=0;swimlaneHead=0;swimlaneBody=0;strokeColor=inherit;top=0;left=0;bottom=0;right=0;collapsible=0;dropTarget=0;fillColor=none;points=[[0,0.5],[1,0.5]];portConstraint=eastwest;" parent="mDEu_xkg_dyJT5L7LfrE-14" vertex="1">
          <mxGeometry y="200" width="733" height="80" as="geometry" />
        </mxCell>
        <mxCell id="qTHYCNkbOjXIvpoYTU0R-16" value="/add" style="shape=partialRectangle;html=1;whiteSpace=wrap;connectable=0;strokeColor=inherit;overflow=hidden;fillColor=none;top=0;left=0;bottom=0;right=0;pointerEvents=1;fontSize=15;" parent="qTHYCNkbOjXIvpoYTU0R-15" vertex="1">
          <mxGeometry width="160" height="80" as="geometry">
            <mxRectangle width="160" height="80" as="alternateBounds" />
          </mxGeometry>
        </mxCell>
        <mxCell id="qTHYCNkbOjXIvpoYTU0R-17" value="POST" style="shape=partialRectangle;html=1;whiteSpace=wrap;connectable=0;strokeColor=inherit;overflow=hidden;fillColor=none;top=0;left=0;bottom=0;right=0;pointerEvents=1;fontSize=15;" parent="qTHYCNkbOjXIvpoYTU0R-15" vertex="1">
          <mxGeometry x="160" width="132" height="80" as="geometry">
            <mxRectangle width="132" height="80" as="alternateBounds" />
          </mxGeometry>
        </mxCell>
        <mxCell id="qTHYCNkbOjXIvpoYTU0R-18" value="Auth: Bearer token&lt;div&gt;Rang: ADMIN, MODERATOR&lt;/div&gt;" style="shape=partialRectangle;html=1;whiteSpace=wrap;connectable=0;overflow=hidden;top=0;left=0;bottom=0;right=0;pointerEvents=1;fontSize=15;fillColor=none;" parent="qTHYCNkbOjXIvpoYTU0R-15" vertex="1">
          <mxGeometry x="292" width="147" height="80" as="geometry">
            <mxRectangle width="147" height="80" as="alternateBounds" />
          </mxGeometry>
        </mxCell>
        <mxCell id="qTHYCNkbOjXIvpoYTU0R-19" value="Body (JSON):&lt;div&gt;Product object&lt;/div&gt;" style="shape=partialRectangle;html=1;whiteSpace=wrap;connectable=0;strokeColor=inherit;overflow=hidden;fillColor=none;top=0;left=0;bottom=0;right=0;pointerEvents=1;fontSize=15;align=center;" parent="qTHYCNkbOjXIvpoYTU0R-15" vertex="1">
          <mxGeometry x="439" width="147" height="80" as="geometry">
            <mxRectangle width="147" height="80" as="alternateBounds" />
          </mxGeometry>
        </mxCell>
        <mxCell id="qTHYCNkbOjXIvpoYTU0R-21" value="message,&lt;div&gt;Product object&lt;/div&gt;" style="shape=partialRectangle;html=1;whiteSpace=wrap;connectable=0;strokeColor=inherit;overflow=hidden;fillColor=none;top=0;left=0;bottom=0;right=0;pointerEvents=1;fontSize=15;" parent="qTHYCNkbOjXIvpoYTU0R-15" vertex="1">
          <mxGeometry x="586" width="147" height="80" as="geometry">
            <mxRectangle width="147" height="80" as="alternateBounds" />
          </mxGeometry>
        </mxCell>
        <mxCell id="qTHYCNkbOjXIvpoYTU0R-8" style="shape=tableRow;horizontal=0;startSize=0;swimlaneHead=0;swimlaneBody=0;strokeColor=inherit;top=0;left=0;bottom=0;right=0;collapsible=0;dropTarget=0;fillColor=none;points=[[0,0.5],[1,0.5]];portConstraint=eastwest;" parent="mDEu_xkg_dyJT5L7LfrE-14" vertex="1">
          <mxGeometry y="280" width="733" height="80" as="geometry" />
        </mxCell>
        <mxCell id="qTHYCNkbOjXIvpoYTU0R-9" value="/update/:id" style="shape=partialRectangle;html=1;whiteSpace=wrap;connectable=0;strokeColor=inherit;overflow=hidden;fillColor=none;top=0;left=0;bottom=0;right=0;pointerEvents=1;fontSize=15;" parent="qTHYCNkbOjXIvpoYTU0R-8" vertex="1">
          <mxGeometry width="160" height="80" as="geometry">
            <mxRectangle width="160" height="80" as="alternateBounds" />
          </mxGeometry>
        </mxCell>
        <mxCell id="qTHYCNkbOjXIvpoYTU0R-10" value="PATCH" style="shape=partialRectangle;html=1;whiteSpace=wrap;connectable=0;strokeColor=inherit;overflow=hidden;fillColor=none;top=0;left=0;bottom=0;right=0;pointerEvents=1;fontSize=15;" parent="qTHYCNkbOjXIvpoYTU0R-8" vertex="1">
          <mxGeometry x="160" width="132" height="80" as="geometry">
            <mxRectangle width="132" height="80" as="alternateBounds" />
          </mxGeometry>
        </mxCell>
        <mxCell id="qTHYCNkbOjXIvpoYTU0R-11" value="Auth: Bearer token&lt;div&gt;Rang: ADMIN, MODERATOR&lt;/div&gt;" style="shape=partialRectangle;html=1;whiteSpace=wrap;connectable=0;overflow=hidden;top=0;left=0;bottom=0;right=0;pointerEvents=1;fontSize=15;fillColor=none;" parent="qTHYCNkbOjXIvpoYTU0R-8" vertex="1">
          <mxGeometry x="292" width="147" height="80" as="geometry">
            <mxRectangle width="147" height="80" as="alternateBounds" />
          </mxGeometry>
        </mxCell>
        <mxCell id="qTHYCNkbOjXIvpoYTU0R-12" value="Body (JSON):&lt;div&gt;Product object&lt;/div&gt;" style="shape=partialRectangle;html=1;whiteSpace=wrap;connectable=0;strokeColor=inherit;overflow=hidden;fillColor=none;top=0;left=0;bottom=0;right=0;pointerEvents=1;fontSize=15;align=center;" parent="qTHYCNkbOjXIvpoYTU0R-8" vertex="1">
          <mxGeometry x="439" width="147" height="80" as="geometry">
            <mxRectangle width="147" height="80" as="alternateBounds" />
          </mxGeometry>
        </mxCell>
        <mxCell id="qTHYCNkbOjXIvpoYTU0R-14" value="message,&lt;div&gt;Product object&lt;/div&gt;" style="shape=partialRectangle;html=1;whiteSpace=wrap;connectable=0;strokeColor=inherit;overflow=hidden;fillColor=none;top=0;left=0;bottom=0;right=0;pointerEvents=1;fontSize=15;" parent="qTHYCNkbOjXIvpoYTU0R-8" vertex="1">
          <mxGeometry x="586" width="147" height="80" as="geometry">
            <mxRectangle width="147" height="80" as="alternateBounds" />
          </mxGeometry>
        </mxCell>
        <mxCell id="qTHYCNkbOjXIvpoYTU0R-94" style="shape=tableRow;horizontal=0;startSize=0;swimlaneHead=0;swimlaneBody=0;strokeColor=inherit;top=0;left=0;bottom=0;right=0;collapsible=0;dropTarget=0;fillColor=none;points=[[0,0.5],[1,0.5]];portConstraint=eastwest;" parent="mDEu_xkg_dyJT5L7LfrE-14" vertex="1">
          <mxGeometry y="360" width="733" height="80" as="geometry" />
        </mxCell>
        <mxCell id="qTHYCNkbOjXIvpoYTU0R-95" value="/delete/:id" style="shape=partialRectangle;html=1;whiteSpace=wrap;connectable=0;strokeColor=inherit;overflow=hidden;fillColor=none;top=0;left=0;bottom=0;right=0;pointerEvents=1;fontSize=15;" parent="qTHYCNkbOjXIvpoYTU0R-94" vertex="1">
          <mxGeometry width="160" height="80" as="geometry">
            <mxRectangle width="160" height="80" as="alternateBounds" />
          </mxGeometry>
        </mxCell>
        <mxCell id="qTHYCNkbOjXIvpoYTU0R-96" value="DELETE" style="shape=partialRectangle;html=1;whiteSpace=wrap;connectable=0;strokeColor=inherit;overflow=hidden;fillColor=none;top=0;left=0;bottom=0;right=0;pointerEvents=1;fontSize=15;" parent="qTHYCNkbOjXIvpoYTU0R-94" vertex="1">
          <mxGeometry x="160" width="132" height="80" as="geometry">
            <mxRectangle width="132" height="80" as="alternateBounds" />
          </mxGeometry>
        </mxCell>
        <mxCell id="qTHYCNkbOjXIvpoYTU0R-97" value="Auth: Bearer token&lt;div&gt;Rang: ADMIN, MODERATOR&lt;/div&gt;" style="shape=partialRectangle;html=1;whiteSpace=wrap;connectable=0;overflow=hidden;top=0;left=0;bottom=0;right=0;pointerEvents=1;fontSize=15;fillColor=none;" parent="qTHYCNkbOjXIvpoYTU0R-94" vertex="1">
          <mxGeometry x="292" width="147" height="80" as="geometry">
            <mxRectangle width="147" height="80" as="alternateBounds" />
          </mxGeometry>
        </mxCell>
        <mxCell id="qTHYCNkbOjXIvpoYTU0R-98" value="URL param: id" style="shape=partialRectangle;html=1;whiteSpace=wrap;connectable=0;strokeColor=inherit;overflow=hidden;fillColor=none;top=0;left=0;bottom=0;right=0;pointerEvents=1;fontSize=15;align=center;" parent="qTHYCNkbOjXIvpoYTU0R-94" vertex="1">
          <mxGeometry x="439" width="147" height="80" as="geometry">
            <mxRectangle width="147" height="80" as="alternateBounds" />
          </mxGeometry>
        </mxCell>
        <mxCell id="qTHYCNkbOjXIvpoYTU0R-99" value="message" style="shape=partialRectangle;html=1;whiteSpace=wrap;connectable=0;strokeColor=inherit;overflow=hidden;fillColor=none;top=0;left=0;bottom=0;right=0;pointerEvents=1;fontSize=15;" parent="qTHYCNkbOjXIvpoYTU0R-94" vertex="1">
          <mxGeometry x="586" width="147" height="80" as="geometry">
            <mxRectangle width="147" height="80" as="alternateBounds" />
          </mxGeometry>
        </mxCell>
        <mxCell id="J1LpcyTci4mmPusPf07T-1" style="shape=tableRow;horizontal=0;startSize=0;swimlaneHead=0;swimlaneBody=0;strokeColor=inherit;top=0;left=0;bottom=0;right=0;collapsible=0;dropTarget=0;fillColor=none;points=[[0,0.5],[1,0.5]];portConstraint=eastwest;" vertex="1" parent="mDEu_xkg_dyJT5L7LfrE-14">
          <mxGeometry y="440" width="733" height="80" as="geometry" />
        </mxCell>
        <mxCell id="J1LpcyTci4mmPusPf07T-2" value="/image/:id/:file" style="shape=partialRectangle;html=1;whiteSpace=wrap;connectable=0;strokeColor=inherit;overflow=hidden;fillColor=none;top=0;left=0;bottom=0;right=0;pointerEvents=1;fontSize=15;" vertex="1" parent="J1LpcyTci4mmPusPf07T-1">
          <mxGeometry width="160" height="80" as="geometry">
            <mxRectangle width="160" height="80" as="alternateBounds" />
          </mxGeometry>
        </mxCell>
        <mxCell id="J1LpcyTci4mmPusPf07T-3" value="GET" style="shape=partialRectangle;html=1;whiteSpace=wrap;connectable=0;strokeColor=inherit;overflow=hidden;fillColor=none;top=0;left=0;bottom=0;right=0;pointerEvents=1;fontSize=15;" vertex="1" parent="J1LpcyTci4mmPusPf07T-1">
          <mxGeometry x="160" width="132" height="80" as="geometry">
            <mxRectangle width="132" height="80" as="alternateBounds" />
          </mxGeometry>
        </mxCell>
        <mxCell id="J1LpcyTci4mmPusPf07T-4" style="shape=partialRectangle;html=1;whiteSpace=wrap;connectable=0;overflow=hidden;top=0;left=0;bottom=0;right=0;pointerEvents=1;fontSize=15;fillColor=#008a00;fontColor=#ffffff;strokeColor=#005700;" vertex="1" parent="J1LpcyTci4mmPusPf07T-1">
          <mxGeometry x="292" width="147" height="80" as="geometry">
            <mxRectangle width="147" height="80" as="alternateBounds" />
          </mxGeometry>
        </mxCell>
        <mxCell id="J1LpcyTci4mmPusPf07T-5" value="URL param: id, file" style="shape=partialRectangle;html=1;whiteSpace=wrap;connectable=0;strokeColor=inherit;overflow=hidden;fillColor=none;top=0;left=0;bottom=0;right=0;pointerEvents=1;fontSize=15;align=center;" vertex="1" parent="J1LpcyTci4mmPusPf07T-1">
          <mxGeometry x="439" width="147" height="80" as="geometry">
            <mxRectangle width="147" height="80" as="alternateBounds" />
          </mxGeometry>
        </mxCell>
        <mxCell id="J1LpcyTci4mmPusPf07T-6" value="Image file" style="shape=partialRectangle;html=1;whiteSpace=wrap;connectable=0;strokeColor=inherit;overflow=hidden;fillColor=none;top=0;left=0;bottom=0;right=0;pointerEvents=1;fontSize=15;" vertex="1" parent="J1LpcyTci4mmPusPf07T-1">
          <mxGeometry x="586" width="147" height="80" as="geometry">
            <mxRectangle width="147" height="80" as="alternateBounds" />
          </mxGeometry>
        </mxCell>
        <mxCell id="qTHYCNkbOjXIvpoYTU0R-106" style="shape=tableRow;horizontal=0;startSize=0;swimlaneHead=0;swimlaneBody=0;strokeColor=inherit;top=0;left=0;bottom=0;right=0;collapsible=0;dropTarget=0;fillColor=none;points=[[0,0.5],[1,0.5]];portConstraint=eastwest;" parent="mDEu_xkg_dyJT5L7LfrE-14" vertex="1">
          <mxGeometry y="520" width="733" height="80" as="geometry" />
        </mxCell>
        <mxCell id="qTHYCNkbOjXIvpoYTU0R-107" value="/image/:id" style="shape=partialRectangle;html=1;whiteSpace=wrap;connectable=0;strokeColor=inherit;overflow=hidden;fillColor=none;top=0;left=0;bottom=0;right=0;pointerEvents=1;fontSize=15;rowspan=2;colspan=1;" parent="qTHYCNkbOjXIvpoYTU0R-106" vertex="1">
          <mxGeometry width="160" height="190" as="geometry">
            <mxRectangle width="160" height="80" as="alternateBounds" />
          </mxGeometry>
        </mxCell>
        <mxCell id="qTHYCNkbOjXIvpoYTU0R-108" value="POST" style="shape=partialRectangle;html=1;whiteSpace=wrap;connectable=0;strokeColor=inherit;overflow=hidden;fillColor=none;top=0;left=0;bottom=0;right=0;pointerEvents=1;fontSize=15;" parent="qTHYCNkbOjXIvpoYTU0R-106" vertex="1">
          <mxGeometry x="160" width="132" height="80" as="geometry">
            <mxRectangle width="132" height="80" as="alternateBounds" />
          </mxGeometry>
        </mxCell>
        <mxCell id="qTHYCNkbOjXIvpoYTU0R-109" value="Auth: Bearer token&lt;div&gt;Rang: ADMIN, MODERATOR&lt;/div&gt;" style="shape=partialRectangle;html=1;whiteSpace=wrap;connectable=0;overflow=hidden;top=0;left=0;bottom=0;right=0;pointerEvents=1;fontSize=15;fillColor=none;" parent="qTHYCNkbOjXIvpoYTU0R-106" vertex="1">
          <mxGeometry x="292" width="147" height="80" as="geometry">
            <mxRectangle width="147" height="80" as="alternateBounds" />
          </mxGeometry>
        </mxCell>
        <mxCell id="qTHYCNkbOjXIvpoYTU0R-110" value="URL param: id&lt;div&gt;Body (FormData):&lt;/div&gt;&lt;div&gt;Image files&lt;/div&gt;" style="shape=partialRectangle;html=1;whiteSpace=wrap;connectable=0;strokeColor=inherit;overflow=hidden;fillColor=none;top=0;left=0;bottom=0;right=0;pointerEvents=1;fontSize=15;align=center;" parent="qTHYCNkbOjXIvpoYTU0R-106" vertex="1">
          <mxGeometry x="439" width="147" height="80" as="geometry">
            <mxRectangle width="147" height="80" as="alternateBounds" />
          </mxGeometry>
        </mxCell>
        <mxCell id="qTHYCNkbOjXIvpoYTU0R-111" value="Product object" style="shape=partialRectangle;html=1;whiteSpace=wrap;connectable=0;strokeColor=inherit;overflow=hidden;fillColor=none;top=0;left=0;bottom=0;right=0;pointerEvents=1;fontSize=15;" parent="qTHYCNkbOjXIvpoYTU0R-106" vertex="1">
          <mxGeometry x="586" width="147" height="80" as="geometry">
            <mxRectangle width="147" height="80" as="alternateBounds" />
          </mxGeometry>
        </mxCell>
        <mxCell id="qTHYCNkbOjXIvpoYTU0R-100" style="shape=tableRow;horizontal=0;startSize=0;swimlaneHead=0;swimlaneBody=0;strokeColor=inherit;top=0;left=0;bottom=0;right=0;collapsible=0;dropTarget=0;fillColor=none;points=[[0,0.5],[1,0.5]];portConstraint=eastwest;" parent="mDEu_xkg_dyJT5L7LfrE-14" vertex="1">
          <mxGeometry y="600" width="733" height="110" as="geometry" />
        </mxCell>
        <mxCell id="qTHYCNkbOjXIvpoYTU0R-101" style="shape=partialRectangle;html=1;whiteSpace=wrap;connectable=0;strokeColor=inherit;overflow=hidden;fillColor=none;top=0;left=0;bottom=0;right=0;pointerEvents=1;fontSize=15;" parent="qTHYCNkbOjXIvpoYTU0R-100" vertex="1" visible="0">
          <mxGeometry width="160" height="110" as="geometry">
            <mxRectangle width="160" height="110" as="alternateBounds" />
          </mxGeometry>
        </mxCell>
        <mxCell id="qTHYCNkbOjXIvpoYTU0R-102" value="DELETE" style="shape=partialRectangle;html=1;whiteSpace=wrap;connectable=0;strokeColor=inherit;overflow=hidden;fillColor=none;top=0;left=0;bottom=0;right=0;pointerEvents=1;fontSize=15;" parent="qTHYCNkbOjXIvpoYTU0R-100" vertex="1">
          <mxGeometry x="160" width="132" height="110" as="geometry">
            <mxRectangle width="132" height="110" as="alternateBounds" />
          </mxGeometry>
        </mxCell>
        <mxCell id="qTHYCNkbOjXIvpoYTU0R-103" value="Auth: Bearer token&lt;div&gt;Rang: ADMIN, MODERATOR&lt;/div&gt;" style="shape=partialRectangle;html=1;whiteSpace=wrap;connectable=0;overflow=hidden;top=0;left=0;bottom=0;right=0;pointerEvents=1;fontSize=15;fillColor=none;" parent="qTHYCNkbOjXIvpoYTU0R-100" vertex="1">
          <mxGeometry x="292" width="147" height="110" as="geometry">
            <mxRectangle width="147" height="110" as="alternateBounds" />
          </mxGeometry>
        </mxCell>
        <mxCell id="qTHYCNkbOjXIvpoYTU0R-104" value="URL param: id&lt;div&gt;Body (JSON):&lt;/div&gt;&lt;div&gt;&lt;span style=&quot;background-color: initial;&quot;&gt;{&lt;/span&gt;&lt;/div&gt;&lt;div&gt;filename: string&lt;/div&gt;&lt;div&gt;}&lt;/div&gt;" style="shape=partialRectangle;html=1;whiteSpace=wrap;connectable=0;strokeColor=inherit;overflow=hidden;fillColor=none;top=0;left=0;bottom=0;right=0;pointerEvents=1;fontSize=15;align=center;" parent="qTHYCNkbOjXIvpoYTU0R-100" vertex="1">
          <mxGeometry x="439" width="147" height="110" as="geometry">
            <mxRectangle width="147" height="110" as="alternateBounds" />
          </mxGeometry>
        </mxCell>
        <mxCell id="qTHYCNkbOjXIvpoYTU0R-105" value="Product object" style="shape=partialRectangle;html=1;whiteSpace=wrap;connectable=0;strokeColor=inherit;overflow=hidden;fillColor=none;top=0;left=0;bottom=0;right=0;pointerEvents=1;fontSize=15;" parent="qTHYCNkbOjXIvpoYTU0R-100" vertex="1">
          <mxGeometry x="586" width="147" height="110" as="geometry">
            <mxRectangle width="147" height="110" as="alternateBounds" />
          </mxGeometry>
        </mxCell>
        <mxCell id="qTHYCNkbOjXIvpoYTU0R-22" value="&lt;font style=&quot;font-size: 16px;&quot;&gt;Product:&lt;br&gt;{&lt;br&gt;id: number&lt;br&gt;name: string&lt;br&gt;category: string&lt;br&gt;subCategory: string&lt;br&gt;brand: string&lt;br&gt;discount?: number&lt;br&gt;volume: number&lt;br&gt;alcoholPercentage: number&lt;br&gt;description: string&lt;br&gt;images?: string&lt;br&gt;price: number&lt;br&gt;}&lt;/font&gt;" style="text;align=left;verticalAlign=middle;resizable=0;points=[];autosize=1;strokeColor=none;fillColor=none;fontColor=default;horizontal=1;html=1;" parent="1" vertex="1">
          <mxGeometry x="860" y="185" width="220" height="280" as="geometry" />
        </mxCell>
        <mxCell id="qTHYCNkbOjXIvpoYTU0R-93" value="&lt;font style=&quot;font-size: 24px;&quot;&gt;/product&lt;/font&gt;" style="text;html=1;align=center;verticalAlign=middle;resizable=0;points=[];autosize=1;strokeColor=none;fillColor=none;" parent="1" vertex="1">
          <mxGeometry x="411.5" y="30" width="110" height="40" as="geometry" />
        </mxCell>
        <mxCell id="qTHYCNkbOjXIvpoYTU0R-114" value="" style="shape=table;startSize=0;container=1;collapsible=0;childLayout=tableLayout;" parent="1" vertex="1">
          <mxGeometry x="1180" y="140" width="733" height="570" as="geometry" />
        </mxCell>
        <mxCell id="qTHYCNkbOjXIvpoYTU0R-115" value="" style="shape=tableRow;horizontal=0;startSize=0;swimlaneHead=0;swimlaneBody=0;strokeColor=inherit;top=0;left=0;bottom=0;right=0;collapsible=0;dropTarget=0;fillColor=none;points=[[0,0.5],[1,0.5]];portConstraint=eastwest;" parent="qTHYCNkbOjXIvpoYTU0R-114" vertex="1">
          <mxGeometry width="733" height="40" as="geometry" />
        </mxCell>
        <mxCell id="qTHYCNkbOjXIvpoYTU0R-116" value="Endpoint" style="shape=partialRectangle;html=1;whiteSpace=wrap;connectable=0;strokeColor=inherit;overflow=hidden;fillColor=none;top=0;left=0;bottom=0;right=0;pointerEvents=1;fontStyle=1;fontSize=16;" parent="qTHYCNkbOjXIvpoYTU0R-115" vertex="1">
          <mxGeometry width="160" height="40" as="geometry">
            <mxRectangle width="160" height="40" as="alternateBounds" />
          </mxGeometry>
        </mxCell>
        <mxCell id="qTHYCNkbOjXIvpoYTU0R-117" value="Method" style="shape=partialRectangle;html=1;whiteSpace=wrap;connectable=0;strokeColor=inherit;overflow=hidden;fillColor=none;top=0;left=0;bottom=0;right=0;pointerEvents=1;fontStyle=1;fontSize=16;" parent="qTHYCNkbOjXIvpoYTU0R-115" vertex="1">
          <mxGeometry x="160" width="132" height="40" as="geometry">
            <mxRectangle width="132" height="40" as="alternateBounds" />
          </mxGeometry>
        </mxCell>
        <mxCell id="qTHYCNkbOjXIvpoYTU0R-118" value="Token + Role" style="shape=partialRectangle;html=1;whiteSpace=wrap;connectable=0;strokeColor=inherit;overflow=hidden;fillColor=none;top=0;left=0;bottom=0;right=0;pointerEvents=1;fontStyle=1;fontSize=16;" parent="qTHYCNkbOjXIvpoYTU0R-115" vertex="1">
          <mxGeometry x="292" width="147" height="40" as="geometry">
            <mxRectangle width="147" height="40" as="alternateBounds" />
          </mxGeometry>
        </mxCell>
        <mxCell id="qTHYCNkbOjXIvpoYTU0R-119" value="Data" style="shape=partialRectangle;html=1;whiteSpace=wrap;connectable=0;strokeColor=inherit;overflow=hidden;fillColor=none;top=0;left=0;bottom=0;right=0;pointerEvents=1;fontStyle=1;fontSize=16;" parent="qTHYCNkbOjXIvpoYTU0R-115" vertex="1">
          <mxGeometry x="439" width="147" height="40" as="geometry">
            <mxRectangle width="147" height="40" as="alternateBounds" />
          </mxGeometry>
        </mxCell>
        <mxCell id="qTHYCNkbOjXIvpoYTU0R-120" value="Response" style="shape=partialRectangle;html=1;whiteSpace=wrap;connectable=0;strokeColor=inherit;overflow=hidden;fillColor=none;top=0;left=0;bottom=0;right=0;pointerEvents=1;fontStyle=1;fontSize=16;" parent="qTHYCNkbOjXIvpoYTU0R-115" vertex="1">
          <mxGeometry x="586" width="147" height="40" as="geometry">
            <mxRectangle width="147" height="40" as="alternateBounds" />
          </mxGeometry>
        </mxCell>
        <mxCell id="qTHYCNkbOjXIvpoYTU0R-171" style="shape=tableRow;horizontal=0;startSize=0;swimlaneHead=0;swimlaneBody=0;strokeColor=inherit;top=0;left=0;bottom=0;right=0;collapsible=0;dropTarget=0;fillColor=none;points=[[0,0.5],[1,0.5]];portConstraint=eastwest;" parent="qTHYCNkbOjXIvpoYTU0R-114" vertex="1">
          <mxGeometry y="40" width="733" height="80" as="geometry" />
        </mxCell>
        <mxCell id="qTHYCNkbOjXIvpoYTU0R-172" value="/registration" style="shape=partialRectangle;html=1;whiteSpace=wrap;connectable=0;strokeColor=inherit;overflow=hidden;fillColor=none;top=0;left=0;bottom=0;right=0;pointerEvents=1;fontSize=15;" parent="qTHYCNkbOjXIvpoYTU0R-171" vertex="1">
          <mxGeometry width="160" height="80" as="geometry">
            <mxRectangle width="160" height="80" as="alternateBounds" />
          </mxGeometry>
        </mxCell>
        <mxCell id="qTHYCNkbOjXIvpoYTU0R-173" value="POST" style="shape=partialRectangle;html=1;whiteSpace=wrap;connectable=0;strokeColor=inherit;overflow=hidden;fillColor=none;top=0;left=0;bottom=0;right=0;pointerEvents=1;fontSize=15;" parent="qTHYCNkbOjXIvpoYTU0R-171" vertex="1">
          <mxGeometry x="160" width="132" height="80" as="geometry">
            <mxRectangle width="132" height="80" as="alternateBounds" />
          </mxGeometry>
        </mxCell>
        <mxCell id="qTHYCNkbOjXIvpoYTU0R-174" style="shape=partialRectangle;html=1;whiteSpace=wrap;connectable=0;strokeColor=#005700;overflow=hidden;fillColor=#008a00;top=0;left=0;bottom=0;right=0;pointerEvents=1;fontSize=15;fontColor=#ffffff;" parent="qTHYCNkbOjXIvpoYTU0R-171" vertex="1">
          <mxGeometry x="292" width="147" height="80" as="geometry">
            <mxRectangle width="147" height="80" as="alternateBounds" />
          </mxGeometry>
        </mxCell>
        <mxCell id="qTHYCNkbOjXIvpoYTU0R-175" value="Body (JSON):&lt;div&gt;User object&lt;/div&gt;" style="shape=partialRectangle;html=1;whiteSpace=wrap;connectable=0;strokeColor=inherit;overflow=hidden;fillColor=none;top=0;left=0;bottom=0;right=0;pointerEvents=1;fontSize=15;" parent="qTHYCNkbOjXIvpoYTU0R-171" vertex="1">
          <mxGeometry x="439" width="147" height="80" as="geometry">
            <mxRectangle width="147" height="80" as="alternateBounds" />
          </mxGeometry>
        </mxCell>
        <mxCell id="qTHYCNkbOjXIvpoYTU0R-176" value="message,&lt;div&gt;User object&lt;/div&gt;" style="shape=partialRectangle;html=1;whiteSpace=wrap;connectable=0;strokeColor=inherit;overflow=hidden;fillColor=none;top=0;left=0;bottom=0;right=0;pointerEvents=1;fontSize=15;" parent="qTHYCNkbOjXIvpoYTU0R-171" vertex="1">
          <mxGeometry x="586" width="147" height="80" as="geometry">
            <mxRectangle width="147" height="80" as="alternateBounds" />
          </mxGeometry>
        </mxCell>
        <mxCell id="qTHYCNkbOjXIvpoYTU0R-165" style="shape=tableRow;horizontal=0;startSize=0;swimlaneHead=0;swimlaneBody=0;strokeColor=inherit;top=0;left=0;bottom=0;right=0;collapsible=0;dropTarget=0;fillColor=none;points=[[0,0.5],[1,0.5]];portConstraint=eastwest;" parent="qTHYCNkbOjXIvpoYTU0R-114" vertex="1">
          <mxGeometry y="120" width="733" height="100" as="geometry" />
        </mxCell>
        <mxCell id="qTHYCNkbOjXIvpoYTU0R-166" value="/login" style="shape=partialRectangle;html=1;whiteSpace=wrap;connectable=0;strokeColor=inherit;overflow=hidden;fillColor=none;top=0;left=0;bottom=0;right=0;pointerEvents=1;fontSize=15;" parent="qTHYCNkbOjXIvpoYTU0R-165" vertex="1">
          <mxGeometry width="160" height="100" as="geometry">
            <mxRectangle width="160" height="100" as="alternateBounds" />
          </mxGeometry>
        </mxCell>
        <mxCell id="qTHYCNkbOjXIvpoYTU0R-167" value="POST" style="shape=partialRectangle;html=1;whiteSpace=wrap;connectable=0;strokeColor=inherit;overflow=hidden;fillColor=none;top=0;left=0;bottom=0;right=0;pointerEvents=1;fontSize=15;" parent="qTHYCNkbOjXIvpoYTU0R-165" vertex="1">
          <mxGeometry x="160" width="132" height="100" as="geometry">
            <mxRectangle width="132" height="100" as="alternateBounds" />
          </mxGeometry>
        </mxCell>
        <mxCell id="qTHYCNkbOjXIvpoYTU0R-168" style="shape=partialRectangle;html=1;whiteSpace=wrap;connectable=0;strokeColor=#005700;overflow=hidden;fillColor=#008a00;top=0;left=0;bottom=0;right=0;pointerEvents=1;fontSize=15;fontColor=#ffffff;" parent="qTHYCNkbOjXIvpoYTU0R-165" vertex="1">
          <mxGeometry x="292" width="147" height="100" as="geometry">
            <mxRectangle width="147" height="100" as="alternateBounds" />
          </mxGeometry>
        </mxCell>
        <mxCell id="qTHYCNkbOjXIvpoYTU0R-169" value="Body (JSON):&lt;div&gt;&lt;span style=&quot;background-color: initial;&quot;&gt;{&lt;/span&gt;&lt;div&gt;email: string&lt;/div&gt;&lt;div&gt;password: string&lt;br&gt;&lt;div&gt;}&lt;/div&gt;&lt;/div&gt;&lt;/div&gt;" style="shape=partialRectangle;html=1;whiteSpace=wrap;connectable=0;strokeColor=inherit;overflow=hidden;fillColor=none;top=0;left=0;bottom=0;right=0;pointerEvents=1;fontSize=15;" parent="qTHYCNkbOjXIvpoYTU0R-165" vertex="1">
          <mxGeometry x="439" width="147" height="100" as="geometry">
            <mxRectangle width="147" height="100" as="alternateBounds" />
          </mxGeometry>
        </mxCell>
        <mxCell id="qTHYCNkbOjXIvpoYTU0R-170" value="token,&lt;div&gt;User object&lt;/div&gt;" style="shape=partialRectangle;html=1;whiteSpace=wrap;connectable=0;strokeColor=inherit;overflow=hidden;fillColor=none;top=0;left=0;bottom=0;right=0;pointerEvents=1;fontSize=15;" parent="qTHYCNkbOjXIvpoYTU0R-165" vertex="1">
          <mxGeometry x="586" width="147" height="100" as="geometry">
            <mxRectangle width="147" height="100" as="alternateBounds" />
          </mxGeometry>
        </mxCell>
        <mxCell id="qTHYCNkbOjXIvpoYTU0R-177" style="shape=tableRow;horizontal=0;startSize=0;swimlaneHead=0;swimlaneBody=0;strokeColor=inherit;top=0;left=0;bottom=0;right=0;collapsible=0;dropTarget=0;fillColor=none;points=[[0,0.5],[1,0.5]];portConstraint=eastwest;" parent="qTHYCNkbOjXIvpoYTU0R-114" vertex="1">
          <mxGeometry y="220" width="733" height="80" as="geometry" />
        </mxCell>
        <mxCell id="qTHYCNkbOjXIvpoYTU0R-178" value="/me" style="shape=partialRectangle;html=1;whiteSpace=wrap;connectable=0;strokeColor=inherit;overflow=hidden;fillColor=none;top=0;left=0;bottom=0;right=0;pointerEvents=1;fontSize=15;rowspan=2;colspan=1;" parent="qTHYCNkbOjXIvpoYTU0R-177" vertex="1">
          <mxGeometry width="160" height="160" as="geometry">
            <mxRectangle width="160" height="80" as="alternateBounds" />
          </mxGeometry>
        </mxCell>
        <mxCell id="qTHYCNkbOjXIvpoYTU0R-179" value="GET" style="shape=partialRectangle;html=1;whiteSpace=wrap;connectable=0;strokeColor=inherit;overflow=hidden;fillColor=none;top=0;left=0;bottom=0;right=0;pointerEvents=1;fontSize=15;" parent="qTHYCNkbOjXIvpoYTU0R-177" vertex="1">
          <mxGeometry x="160" width="132" height="80" as="geometry">
            <mxRectangle width="132" height="80" as="alternateBounds" />
          </mxGeometry>
        </mxCell>
        <mxCell id="qTHYCNkbOjXIvpoYTU0R-180" value="Auth: Bearer token" style="shape=partialRectangle;html=1;whiteSpace=wrap;connectable=0;strokeColor=#005700;overflow=hidden;fillColor=none;top=0;left=0;bottom=0;right=0;pointerEvents=1;fontSize=15;fontColor=#ffffff;" parent="qTHYCNkbOjXIvpoYTU0R-177" vertex="1">
          <mxGeometry x="292" width="147" height="80" as="geometry">
            <mxRectangle width="147" height="80" as="alternateBounds" />
          </mxGeometry>
        </mxCell>
        <mxCell id="qTHYCNkbOjXIvpoYTU0R-181" value="-" style="shape=partialRectangle;html=1;whiteSpace=wrap;connectable=0;strokeColor=inherit;overflow=hidden;fillColor=none;top=0;left=0;bottom=0;right=0;pointerEvents=1;fontSize=15;" parent="qTHYCNkbOjXIvpoYTU0R-177" vertex="1">
          <mxGeometry x="439" width="147" height="80" as="geometry">
            <mxRectangle width="147" height="80" as="alternateBounds" />
          </mxGeometry>
        </mxCell>
        <mxCell id="qTHYCNkbOjXIvpoYTU0R-182" value="User object" style="shape=partialRectangle;html=1;whiteSpace=wrap;connectable=0;strokeColor=inherit;overflow=hidden;fillColor=none;top=0;left=0;bottom=0;right=0;pointerEvents=1;fontSize=15;" parent="qTHYCNkbOjXIvpoYTU0R-177" vertex="1">
          <mxGeometry x="586" width="147" height="80" as="geometry">
            <mxRectangle width="147" height="80" as="alternateBounds" />
          </mxGeometry>
        </mxCell>
        <mxCell id="qTHYCNkbOjXIvpoYTU0R-183" style="shape=tableRow;horizontal=0;startSize=0;swimlaneHead=0;swimlaneBody=0;strokeColor=inherit;top=0;left=0;bottom=0;right=0;collapsible=0;dropTarget=0;fillColor=none;points=[[0,0.5],[1,0.5]];portConstraint=eastwest;" parent="qTHYCNkbOjXIvpoYTU0R-114" vertex="1">
          <mxGeometry y="300" width="733" height="80" as="geometry" />
        </mxCell>
        <mxCell id="qTHYCNkbOjXIvpoYTU0R-184" style="shape=partialRectangle;html=1;whiteSpace=wrap;connectable=0;strokeColor=inherit;overflow=hidden;fillColor=none;top=0;left=0;bottom=0;right=0;pointerEvents=1;fontSize=15;" parent="qTHYCNkbOjXIvpoYTU0R-183" vertex="1" visible="0">
          <mxGeometry width="160" height="80" as="geometry">
            <mxRectangle width="160" height="80" as="alternateBounds" />
          </mxGeometry>
        </mxCell>
        <mxCell id="qTHYCNkbOjXIvpoYTU0R-185" value="PATCH" style="shape=partialRectangle;html=1;whiteSpace=wrap;connectable=0;strokeColor=inherit;overflow=hidden;fillColor=none;top=0;left=0;bottom=0;right=0;pointerEvents=1;fontSize=15;" parent="qTHYCNkbOjXIvpoYTU0R-183" vertex="1">
          <mxGeometry x="160" width="132" height="80" as="geometry">
            <mxRectangle width="132" height="80" as="alternateBounds" />
          </mxGeometry>
        </mxCell>
        <mxCell id="qTHYCNkbOjXIvpoYTU0R-186" value="Auth: Bearer token" style="shape=partialRectangle;html=1;whiteSpace=wrap;connectable=0;strokeColor=#005700;overflow=hidden;fillColor=none;top=0;left=0;bottom=0;right=0;pointerEvents=1;fontSize=15;fontColor=#ffffff;" parent="qTHYCNkbOjXIvpoYTU0R-183" vertex="1">
          <mxGeometry x="292" width="147" height="80" as="geometry">
            <mxRectangle width="147" height="80" as="alternateBounds" />
          </mxGeometry>
        </mxCell>
        <mxCell id="qTHYCNkbOjXIvpoYTU0R-187" value="Body (JSON):&lt;div&gt;User object&lt;/div&gt;" style="shape=partialRectangle;html=1;whiteSpace=wrap;connectable=0;strokeColor=inherit;overflow=hidden;fillColor=none;top=0;left=0;bottom=0;right=0;pointerEvents=1;fontSize=15;" parent="qTHYCNkbOjXIvpoYTU0R-183" vertex="1">
          <mxGeometry x="439" width="147" height="80" as="geometry">
            <mxRectangle width="147" height="80" as="alternateBounds" />
          </mxGeometry>
        </mxCell>
        <mxCell id="qTHYCNkbOjXIvpoYTU0R-188" value="message,&lt;div&gt;User object&lt;/div&gt;" style="shape=partialRectangle;html=1;whiteSpace=wrap;connectable=0;strokeColor=inherit;overflow=hidden;fillColor=none;top=0;left=0;bottom=0;right=0;pointerEvents=1;fontSize=15;" parent="qTHYCNkbOjXIvpoYTU0R-183" vertex="1">
          <mxGeometry x="586" width="147" height="80" as="geometry">
            <mxRectangle width="147" height="80" as="alternateBounds" />
          </mxGeometry>
        </mxCell>
        <mxCell id="qTHYCNkbOjXIvpoYTU0R-195" style="shape=tableRow;horizontal=0;startSize=0;swimlaneHead=0;swimlaneBody=0;strokeColor=inherit;top=0;left=0;bottom=0;right=0;collapsible=0;dropTarget=0;fillColor=none;points=[[0,0.5],[1,0.5]];portConstraint=eastwest;" parent="qTHYCNkbOjXIvpoYTU0R-114" vertex="1">
          <mxGeometry y="380" width="733" height="110" as="geometry" />
        </mxCell>
        <mxCell id="qTHYCNkbOjXIvpoYTU0R-196" value="/password" style="shape=partialRectangle;html=1;whiteSpace=wrap;connectable=0;strokeColor=inherit;overflow=hidden;fillColor=none;top=0;left=0;bottom=0;right=0;pointerEvents=1;fontSize=15;" parent="qTHYCNkbOjXIvpoYTU0R-195" vertex="1">
          <mxGeometry width="160" height="110" as="geometry">
            <mxRectangle width="160" height="110" as="alternateBounds" />
          </mxGeometry>
        </mxCell>
        <mxCell id="qTHYCNkbOjXIvpoYTU0R-197" value="PATCH" style="shape=partialRectangle;html=1;whiteSpace=wrap;connectable=0;strokeColor=inherit;overflow=hidden;fillColor=none;top=0;left=0;bottom=0;right=0;pointerEvents=1;fontSize=15;" parent="qTHYCNkbOjXIvpoYTU0R-195" vertex="1">
          <mxGeometry x="160" width="132" height="110" as="geometry">
            <mxRectangle width="132" height="110" as="alternateBounds" />
          </mxGeometry>
        </mxCell>
        <mxCell id="qTHYCNkbOjXIvpoYTU0R-198" value="Auth: Bearer token" style="shape=partialRectangle;html=1;whiteSpace=wrap;connectable=0;strokeColor=#005700;overflow=hidden;fillColor=none;top=0;left=0;bottom=0;right=0;pointerEvents=1;fontSize=15;fontColor=#ffffff;" parent="qTHYCNkbOjXIvpoYTU0R-195" vertex="1">
          <mxGeometry x="292" width="147" height="110" as="geometry">
            <mxRectangle width="147" height="110" as="alternateBounds" />
          </mxGeometry>
        </mxCell>
        <mxCell id="qTHYCNkbOjXIvpoYTU0R-199" value="Body (JSON):&lt;div&gt;{&lt;/div&gt;&lt;div&gt;password: string&lt;/div&gt;&lt;div&gt;newPassword: string&lt;/div&gt;&lt;div&gt;}&lt;/div&gt;" style="shape=partialRectangle;html=1;whiteSpace=wrap;connectable=0;strokeColor=inherit;overflow=hidden;fillColor=none;top=0;left=0;bottom=0;right=0;pointerEvents=1;fontSize=15;" parent="qTHYCNkbOjXIvpoYTU0R-195" vertex="1">
          <mxGeometry x="439" width="147" height="110" as="geometry">
            <mxRectangle width="147" height="110" as="alternateBounds" />
          </mxGeometry>
        </mxCell>
        <mxCell id="qTHYCNkbOjXIvpoYTU0R-200" value="message" style="shape=partialRectangle;html=1;whiteSpace=wrap;connectable=0;strokeColor=inherit;overflow=hidden;fillColor=none;top=0;left=0;bottom=0;right=0;pointerEvents=1;fontSize=15;" parent="qTHYCNkbOjXIvpoYTU0R-195" vertex="1">
          <mxGeometry x="586" width="147" height="110" as="geometry">
            <mxRectangle width="147" height="110" as="alternateBounds" />
          </mxGeometry>
        </mxCell>
        <mxCell id="qTHYCNkbOjXIvpoYTU0R-121" value="" style="shape=tableRow;horizontal=0;startSize=0;swimlaneHead=0;swimlaneBody=0;strokeColor=inherit;top=0;left=0;bottom=0;right=0;collapsible=0;dropTarget=0;fillColor=none;points=[[0,0.5],[1,0.5]];portConstraint=eastwest;" parent="qTHYCNkbOjXIvpoYTU0R-114" vertex="1">
          <mxGeometry y="490" width="733" height="80" as="geometry" />
        </mxCell>
        <mxCell id="qTHYCNkbOjXIvpoYTU0R-122" value="/all" style="shape=partialRectangle;html=1;whiteSpace=wrap;connectable=0;strokeColor=inherit;overflow=hidden;fillColor=none;top=0;left=0;bottom=0;right=0;pointerEvents=1;fontSize=15;" parent="qTHYCNkbOjXIvpoYTU0R-121" vertex="1">
          <mxGeometry width="160" height="80" as="geometry">
            <mxRectangle width="160" height="80" as="alternateBounds" />
          </mxGeometry>
        </mxCell>
        <mxCell id="qTHYCNkbOjXIvpoYTU0R-123" value="GET" style="shape=partialRectangle;html=1;whiteSpace=wrap;connectable=0;strokeColor=inherit;overflow=hidden;fillColor=none;top=0;left=0;bottom=0;right=0;pointerEvents=1;fontSize=15;" parent="qTHYCNkbOjXIvpoYTU0R-121" vertex="1">
          <mxGeometry x="160" width="132" height="80" as="geometry">
            <mxRectangle width="132" height="80" as="alternateBounds" />
          </mxGeometry>
        </mxCell>
        <mxCell id="qTHYCNkbOjXIvpoYTU0R-124" value="&lt;span style=&quot;color: rgb(240, 240, 240);&quot;&gt;Auth: Bearer token&lt;/span&gt;&lt;div style=&quot;color: rgb(240, 240, 240);&quot;&gt;Rang: ADMIN, MODERATOR&lt;/div&gt;" style="shape=partialRectangle;html=1;whiteSpace=wrap;connectable=0;strokeColor=#005700;overflow=hidden;fillColor=none;top=0;left=0;bottom=0;right=0;pointerEvents=1;fontSize=15;fontColor=#ffffff;" parent="qTHYCNkbOjXIvpoYTU0R-121" vertex="1">
          <mxGeometry x="292" width="147" height="80" as="geometry">
            <mxRectangle width="147" height="80" as="alternateBounds" />
          </mxGeometry>
        </mxCell>
        <mxCell id="qTHYCNkbOjXIvpoYTU0R-125" value="-" style="shape=partialRectangle;html=1;whiteSpace=wrap;connectable=0;strokeColor=inherit;overflow=hidden;fillColor=none;top=0;left=0;bottom=0;right=0;pointerEvents=1;fontSize=15;" parent="qTHYCNkbOjXIvpoYTU0R-121" vertex="1">
          <mxGeometry x="439" width="147" height="80" as="geometry">
            <mxRectangle width="147" height="80" as="alternateBounds" />
          </mxGeometry>
        </mxCell>
        <mxCell id="qTHYCNkbOjXIvpoYTU0R-126" value="Array&amp;lt;User object&amp;gt;" style="shape=partialRectangle;html=1;whiteSpace=wrap;connectable=0;strokeColor=inherit;overflow=hidden;fillColor=none;top=0;left=0;bottom=0;right=0;pointerEvents=1;fontSize=15;" parent="qTHYCNkbOjXIvpoYTU0R-121" vertex="1">
          <mxGeometry x="586" width="147" height="80" as="geometry">
            <mxRectangle width="147" height="80" as="alternateBounds" />
          </mxGeometry>
        </mxCell>
        <mxCell id="qTHYCNkbOjXIvpoYTU0R-163" value="&lt;font style=&quot;font-size: 16px;&quot;&gt;User:&lt;br&gt;{&lt;br&gt;id: number&lt;br&gt;email: string (email format)&lt;br&gt;lastName: string&lt;br&gt;firstName: string&lt;br&gt;birthDate: string (Date format)&lt;br&gt;password: string (8 chars, 1 A-Z, 1, a-z, 1 spec char)&lt;br&gt;nick?: string&lt;/font&gt;&lt;div&gt;&lt;font style=&quot;font-size: 16px;&quot;&gt;postcode: string&lt;/font&gt;&lt;/div&gt;&lt;div&gt;&lt;font style=&quot;font-size: 16px;&quot;&gt;city: string&lt;/font&gt;&lt;/div&gt;&lt;div&gt;&lt;font style=&quot;font-size: 16px;&quot;&gt;address: string&lt;/font&gt;&lt;/div&gt;&lt;div&gt;&lt;font style=&quot;font-size: 16px;&quot;&gt;mobile: string&lt;/font&gt;&lt;/div&gt;&lt;div&gt;&lt;font style=&quot;font-size: 16px;&quot;&gt;}&lt;/font&gt;&lt;/div&gt;" style="text;align=left;verticalAlign=middle;resizable=0;points=[];autosize=1;strokeColor=none;fillColor=none;html=1;" parent="1" vertex="1">
          <mxGeometry x="1939" y="185" width="400" height="280" as="geometry" />
        </mxCell>
        <mxCell id="qTHYCNkbOjXIvpoYTU0R-164" value="&lt;font style=&quot;font-size: 24px;&quot;&gt;/auth&lt;/font&gt;" style="text;html=1;align=center;verticalAlign=middle;resizable=0;points=[];autosize=1;strokeColor=none;fillColor=none;" parent="1" vertex="1">
          <mxGeometry x="1506.5" y="30" width="80" height="40" as="geometry" />
        </mxCell>
      </root>
    </mxGraphModel>
  </diagram>
</mxfile>
